<svg width="256" height="110" viewBox="0 0 256 110" fill="none"
  xmlns="http://www.w3.org/2000/svg">
  <path d="M0 12.7536C0 5.70999 5.7668 0 12.8805 0H243.12C250.233 0 256 5.70999 256 12.7536V97.2464C256 104.29 250.233 110 243.12 110H12.8805C5.7668 110 0 104.29 0 97.2464V12.7536Z" fill="#60A5FA"/>
  <path fill-rule="evenodd" clip-rule="evenodd" d="M203.013 55.5825L225.434 79.9182L216.076 88.5015L194.382 64.9541L172.678 88.5205L163.319 79.9388L185.749 55.584L162.865 30.7447L172.222 22.1614L194.38 46.2124L216.53 22.1622L225.889 30.7439L203.013 55.5825Z" fill="#262626"/>
  <path fill-rule="evenodd" clip-rule="evenodd" d="M105.206 59.683H126.481V20.8342H139.43V59.683H160.705L133.19 87.4133L105.206 59.683Z" fill="#262626"/>
  <path fill-rule="evenodd" clip-rule="evenodd" d="M94.1055 21.9704V88.4572H81.395V53.4826L62.3294 73.2884L43.2637 53.4826V88.4572H30.5533V21.9705L62.3294 54.9802L94.1055 21.9704Z" fill="#262626"/>
</svg>
